HIERARCHY
ROOT Hips
{
	OFFSET 0.000000 0.000000 0.000000
	CHANNELS 6 Xposition Yposition Zposition Zrotation Yrotation Xrotation 
	JOINT LHipJoint
	{
		OFFSET 0.000000 0.000000 0.000000
		CHANNELS 3 Zrotation Yrotation Xrotation
		JOINT LeftUpLeg
		{
			OFFSET 1.363060 -1.794630 0.839290
			CHANNELS 3 Zrotation Yrotation Xrotation
			JOINT LeftLeg
			{
				OFFSET 2.448110 -6.726130 0.000000
				CHANNELS 3 Zrotation Yrotation Xrotation
				JOINT LeftFoot
				{
					OFFSET 2.562200 -7.039590 0.000000
					CHANNELS 3 Zrotation Yrotation Xrotation
					JOINT LeftToeBase
					{
						OFFSET 0.157640 -0.433110 2.322550
						CHANNELS 3 Zrotation Yrotation Xrotation
						End Site
						{
							OFFSET 0.000000 0.000000 0.000000
						}
					}
				}
			}
		}
	}
	JOINT RHipJoint
	{
		OFFSET 0.000000 0.000000 0.000000
		CHANNELS 3 Zrotation Yrotation Xrotation
		JOINT RightUpLeg
		{
			OFFSET -1.305520 -1.794630 0.839290
			CHANNELS 3 Zrotation Yrotation Xrotation
			JOINT RightLeg
			{
				OFFSET -2.542530 -6.985550 0.000000
				CHANNELS 3 Zrotation Yrotation Xrotation
				JOINT RightFoot
				{
					OFFSET -2.568260 -7.056230 0.000000
					CHANNELS 3 Zrotation Yrotation Xrotation
					JOINT RightToeBase
					{
						OFFSET -0.164730 -0.452590 2.363150
						CHANNELS 3 Zrotation Yrotation Xrotation
						End Site
						{
							OFFSET 0.000000 0.000000 0.000000
						}
					}
				}
			}
		}
	}
}
MOTION
Frames: 11
Frame Time: 0.008333
-1.339007 17.470187 1.880984 -72.606248 -70.048638 91.840760 -8.890903 -4.715214 -4.577616 9.184310 -4.699747 -22.530776 0.227319 0.196114 12.890679 1.438376 8.220363 -3.464455 0.707600 0.000001 -38.348800 6.201084 2.957209 5.747689 -2.615451 12.084830 -96.810167 4.208596 3.099436 -11.685395 0.552728 0.426063 14.511994 -0.930000 0.000000 -74.903399
-1.336888 17.469174 1.869869 -72.935237 -70.127812 92.334127 -8.811859 -4.707282 -4.624881 9.095921 -4.550507 -22.753731 0.201780 0.194131 12.971173 1.430734 8.165226 -3.453270 0.705200 0.000000 -38.387200 6.264021 2.899509 5.770989 -2.382440 12.616880 -97.116532 4.236398 2.988597 -10.882113 0.476629 -0.075797 14.982909 -1.167700 -0.000000 -74.577900
-1.335188 17.468588 1.858779 -73.052710 -70.217808 92.614290 -8.736725 -4.694780 -4.657035 8.986494 -4.477683 -22.970177 0.178328 0.188066 13.026876 1.424563 8.127039 -3.424342 0.707300 0.000000 -38.410400 6.326819 2.846480 5.776217 -2.159727 13.066288 -97.294041 4.253546 2.868548 -10.107492 0.418176 -0.469351 15.505421 -1.360200 -0.000001 -74.240600
-1.334233 17.468392 1.847571 -72.925987 -70.318705 92.657542 -8.664564 -4.677401 -4.670561 8.856977 -4.494728 -23.188214 0.157928 0.176640 13.054808 1.420805 8.112567 -3.375873 0.714900 0.000000 -38.417100 6.388669 2.799867 5.766171 -1.966042 13.415143 -97.333686 4.259336 2.749112 -9.413837 0.383588 -0.716742 16.032204 -1.486100 0.000000 -73.940900
-1.333958 17.468263 1.837094 -72.563366 -70.408905 92.470517 -8.605761 -4.662153 -4.665140 8.734852 -4.569641 -23.423134 0.141358 0.161458 13.073126 1.415237 8.090116 -3.318101 0.723600 -0.000001 -38.423200 6.439417 2.756730 5.741972 -1.794060 13.664851 -97.214321 4.258882 2.641992 -8.853134 0.374183 -0.811844 16.524226 -1.538300 0.000000 -73.762800
-1.335006 17.468395 1.826038 -71.936905 -70.508774 92.040275 -8.547440 -4.641877 -4.638235 8.593533 -4.736652 -23.677731 0.127594 0.139596 13.067945 1.412110 8.091239 -3.243082 0.737700 0.000000 -38.412801 6.489992 2.720239 5.712407 -1.683995 13.803466 -96.966069 4.247533 2.548210 -8.421002 0.391508 -0.735312 16.931461 -1.503200 0.000000 -73.679500
-1.337184 17.468442 1.815429 -71.099398 -70.593269 91.409145 -8.500948 -4.624355 -4.594216 8.462426 -4.943143 -23.956055 0.116271 0.114098 13.058160 1.405764 8.074017 -3.163341 0.751200 0.000000 -38.407600 6.529657 2.686392 5.676715 -1.616817 13.853067 -96.570760 4.230483 2.474205 -8.135742 0.429896 -0.520693 17.235381 -1.395400 0.000000 -73.775200
-1.341118 17.468564 1.803978 -70.039462 -70.682596 90.576787 -8.453459 -4.602028 -4.531151 8.315030 -5.220467 -24.257620 0.106215 0.082458 13.030885 1.400651 8.071401 -3.070855 0.768800 -0.000000 -38.396500 6.570402 2.657393 5.643135 -1.622891 13.811621 -96.065350 4.202526 2.416252 -7.967425 0.486179 -0.177225 17.411177 -1.219100 0.000000 -73.953900
-1.346410 17.468469 1.792660 -68.832793 -70.754719 89.601876 -8.414818 -4.581686 -4.456561 8.174906 -5.511454 -24.574714 0.096215 0.048343 13.002826 1.391096 8.041517 -2.978464 0.783900 0.000000 -38.398600 6.603228 2.629598 5.607230 -1.669766 13.711386 -95.433327 4.168156 2.374899 -7.905458 0.551741 0.241668 17.468334 -1.002900 -0.000000 -74.234700
-1.353168 17.468196 1.781195 -67.516150 -70.814655 88.516380 -8.381224 -4.561124 -4.373217 8.034758 -5.812815 -24.895663 0.085342 0.012000 12.968784 1.378125 7.991872 -2.884833 0.797501 0.000000 -38.415001 6.632046 2.602914 5.569299 -1.750716 13.569881 -94.689638 4.126213 2.344962 -7.914293 0.620157 0.698914 17.420755 -0.767300 -0.000000 -74.573100
-1.361857 17.467850 1.768926 -66.093819 -70.874059 87.328454 -8.346016 -4.536029 -4.280610 7.879225 -6.137318 -25.217588 0.072502 -0.027656 12.924382 1.363932 7.938538 -2.787749 0.811400 0.000000 -38.440301 6.664794 2.576585 5.532190 -1.858512 13.395388 -93.861671 4.076193 2.319944 -7.953896 0.687701 1.172038 17.286353 -0.525500 0.000000 -74.877800
